<?xml version="1.0" encoding="utf-8"?>
<!-- Generator: Adobe Illustrator 26.3.1, SVG Export Plug-In . SVG Version: 6.00 Build 0)  -->
<svg version="1.1" id="レイヤー_1" xmlns="http://www.w3.org/2000/svg" xmlns:xlink="http://www.w3.org/1999/xlink" x="0px"
	 y="0px" viewBox="0 0 195.4 55.8" style="enable-background:new 0 0 195.4 55.8;" xml:space="preserve">
<style type="text/css">
	.st0{fill:#2D2C2C;}
</style>
<g>
	<path class="st0" d="M88.3,54.5c-0.5-0.1-1-0.2-1.5-0.3c-1.1-0.3-1.9-0.8-2.3-1.8c-0.3-0.9,0-1.7,0.6-2.4c0.2-0.3,0.6-0.6,0.9-0.9
		c1.2-1,2.4-1.9,3.6-2.9c0.4-0.4,0.8-0.8,1.4-1c0.4-0.2,0.7-0.4,1-0.6c0.4-0.2,0.7-0.5,1.1-0.8c0.2-0.2,0.5-0.2,0.8-0.1
		c0.1,0,0.2,0.1,0.3,0.2c0.6,0.4,0.6,0.9,0,1.4c-0.7,0.5-1.6,0.5-2.5,0.4c-0.5-0.1-0.5-0.1-0.4,0.3c0.1,0.5-0.2,0.9-0.7,1.1
		c-1.6,0.8-2.9,2-3.9,3.2c-0.4,0.4-0.4,1-0.3,1.5c0,0.1,0.1,0.3,0.1,0.4c0.1,0.6,0.8,0.8,1.3,0.9c0.7,0.2,1.5,0.3,2.3,0.3
		c1.8,0.1,3.4-0.4,4.9-1.2c1.1-0.7,2.1-1.5,3-2.3c0.8-0.7,1.6-1.4,2.3-2.2c0.7-0.7,1.2-1.4,1.8-2.2c0.6-0.8,1.2-1.7,1.8-2.6
		c0.2-0.4,0.6-0.4,1-0.1c0.1,0.1,0.2,0.1,0.4,0.2c-0.1-0.1-0.1-0.3-0.2-0.4c-0.5-0.3-0.8-0.7-0.9-1.2c0-0.1-0.1-0.3-0.1-0.4
		c0-0.3-0.2-0.3-0.5-0.2c-1,0.3-1.9,0.6-2.9,0.9c-0.8,0.3-1.7,0.5-2.5,0.8c-0.7,0.2-1.1,0.6-1.6,1.1c-0.3,0.3-0.7,0.3-0.9-0.1
		c-0.4-0.6-0.2-1,0.6-1.5c1.8-1,3.9-1.7,5.8-2.5c1.1-0.5,2.2-0.9,3.2-1.4c0.9-0.4,1.6-1.1,2-1.9c0.6-1.1,1.1-2.3,1.7-3.4
		c0.5-1.1,1-2.2,1.5-3.3c0.1-0.1,0.1-0.2,0.1-0.4c-0.2,0-0.3,0-0.5,0c-0.9,0.2-1.4,0.7-2.1,1.1c-1.4,1-2.8,1.9-4.4,2.6
		c-1,0.4-2.1,0.7-3.2,0.8c-2,0.2-4-0.1-5.9-0.7c-0.5-0.2-1-0.3-1.5-0.4c-0.1,0-0.3,0.1-0.3,0.2c-0.1,0.9-0.8,1.2-1.7,1.3
		c-1.2,0.2-2.3,0.4-3.5,0.6c-1.3,0.2-2.6,0.5-3.8,0.7c-1.7,0.4-3.4,0.8-5.1,1.2c-1.8,0.4-3.6,0.8-5.4,1.2c-1.4,0.3-2.8,0.4-4.2,0.4
		c-1.3,0-2.6,0-3.8-0.3c-0.9-0.2-1.9-0.5-2.7-1c-1.1-0.6-2.2-1.3-3.2-2c-0.8-0.6-1.1-1.4-0.9-2.3c0.1-0.7,0.4-1.4,0.7-2.1
		c0.5-1,1.2-2,1.9-2.9c0.8-1.2,2.1-1.8,3.8-1.7c1.3,0,2.6,0.2,3.9,0.3c0.7,0,1.3,0,2,0.1c1.1,0.1,2.3,0.1,3.3,0.4
		c1.1,0.3,2,0.8,2.4,1.8c0.2,0.5,0.1,0.9-0.3,1.3c-0.8,0.8-2,1.3-3.2,1.7c-0.9,0.3-1.8,0.5-2.7,0.6c-0.8,0.1-1.6,0.1-2.4,0
		c-0.9-0.1-1.8-0.2-2.7-0.4c-0.7-0.1-1.3-0.3-2-0.4c-0.6,0-1.2,0-1.8,0.1c-0.1,0-0.2,0.3-0.2,0.4c-0.3,0.8-0.5,1.5-0.3,2.3
		c0.2,0.9,1,1.4,2.1,1.6c1,0.2,2,0.4,3,0.6c0.3,0.1,0.7,0.1,1,0.1c0.5,0,1,0.1,1.5,0.1c0.8,0,1.5-0.1,2.3-0.1c0.5,0,1.1-0.1,1.6-0.2
		c1.4-0.2,2.7-0.4,4-0.7c2.4-0.5,4.7-1.1,7.1-1.6c1.4-0.3,2.8-0.5,4.2-0.7c0.8-0.1,1.5-0.2,2.2-0.4c1-0.3,1.6-1,2.2-1.7
		c0.4-0.6,0.9-1.2,1.6-1.6s1.6-0.5,2.1,0c0.3,0.4,0.3,0.8,0.3,1.2c0,0.3-0.1,0.7-0.1,1c0,0.1,0.2,0.3,0.4,0.4c0.3,0.1,0.7,0.1,1,0.2
		c1.3,0,2.7,0,4-0.3c1.2-0.3,2.4-0.6,3.5-1.2c0.9-0.5,1.9-1,2.8-1.5c0.8-0.4,1.5-1,2.2-1.4s1.4-0.9,2.1-1.3c1-0.5,1.8,0.1,2.1,0.7
		c0.2,0.5,0,0.9-0.3,1.3c-0.5,0.7-0.8,1.5-1.1,2.3c-0.2,0.4-0.3,0.8-0.5,1.2c-0.1,0.1-0.3,0.2-0.4,0.2c-0.2,0-0.4,0-0.6,0
		c-0.3,0-0.5,0.2-0.5,0.4c0.3,1.2-0.3,2.2-1,3.2c-0.3,0.4-0.7,0.7-0.6,1.2c0,0.1,0,0.4,0.4,0.2c1.6-0.5,3.2-1.1,4.7-1.6
		c1.7-0.5,3.4-1.1,5.1-1.6c1.6-0.4,3.2-0.7,4.8-1c1.6-0.3,3.2-0.5,4.7-0.8c1-0.2,2-0.3,3-0.5c0.9-0.2,1.5-0.7,2.1-1.2
		c0.5-0.6,1.1-1.1,2.3-0.8c0.3,0.1,0.6,0.2,0.9,0.3c0.4,0.2,0.8,0.4,1.2,0.6c0.4,0.1,0.1,0.2,0,0.3c-0.9,0.4-1.7,0.9-2.4,1.5
		c-0.3,0.2-0.2,0.4-0.1,0.7c0.5,1.1,1.6,1.6,2.9,1.7c1.1,0.1,2.2,0.1,3.3,0.1c0.9,0,1.7,0,2.6-0.1c1.1,0,2.3,0,3.4-0.1
		c1.3-0.1,2.5-0.1,3.8-0.2c2.3-0.2,4.5-0.6,6.8-1.1c0.8-0.2,1.6-0.3,2.4-0.6c1.4-0.5,2.7-1.1,3.5-2.2c1-1.4-0.1-2.9-1.7-3.4
		c-1.1-0.3-2.3-0.5-3.5-0.5c-0.9,0-1.8-0.1-2.6,0c-1.2,0.1-2.5,0.3-3.7,0.6c-1,0.2-1.9,0.5-2.8,0.7c-0.2,0.1-0.5-0.1-0.8-0.1
		c-0.1,0-0.1-0.1-0.2-0.1c-0.2,0-0.4-0.1-0.6-0.1c0.1,0.1,0.2,0.3,0.3,0.4c0.2,0.2,0.1,0.4-0.1,0.5c-0.4,0.2-0.9,0.5-1.5,0.3
		c-0.2-0.1-0.4-0.3-0.7-0.4c-0.2-0.1-0.5-0.4-0.6-0.3c-0.3,0.2-0.6,0.4-0.6,0.6c0,0.5,0.2,1,0.3,1.6c0,0.1,0.3,0.2,0.4,0.2
		c1.1-0.1,2.2-0.1,3.3-0.2c0.3,0,0.5,0,0.7,0.2c0,0,0,0.1,0.1,0.1c0.6,0.8,0.4,1-0.7,1.3c-0.9,0.3-1.9,0.5-2.9,0.5
		c-1.8,0-3.4-1-3.8-2.5c-0.1-0.5-0.2-1-0.3-1.5c0-0.5,0.2-1,0.4-1.4V27c0,0,0,0.1,0.1,0.1c0.3,0.3,0.4,0.7,0.5,1.1
		c0,0.1,0.2,0.1,0.2,0.1c1-0.9,2.6-0.9,3.9-1.3c1.9-0.6,3.9-1,5.9-1.4c1.1-0.2,2.3-0.4,3.5-0.4c1.2-0.1,2.5-0.1,3.7-0.1
		c1.1,0,2.3,0.2,3.4,0.3c1.1,0.2,1.9,0.8,2.4,1.6c0.6,0.8,0.9,1.6,0.8,2.5c-0.1,0.6-0.3,1.1-0.5,1.6c-0.1,0.3-0.3,0.7-0.4,1
		c-0.5,0.8-1.2,1.1-2.3,0.8c-0.6-0.2-0.8-0.1-0.8,0.4s-0.1,0.7-0.9,0.9c-1.5,0.3-3,0.6-4.6,0.9c-1.1,0.2-2.3,0.3-3.4,0.4
		c-1.2,0.1-2.4,0.3-3.6,0.4c-1,0.1-2,0.1-3,0.1c-1.7,0-3.3,0.2-4.9,0.6c-0.5,0.1-0.9,0.1-1.4-0.1c-0.7-0.3-1.5-0.5-2.3-0.6
		c-1.1-0.3-2.3-0.5-3.5-0.7c-1.1-0.2-1.9-0.8-2.6-1.5c-0.2-0.2-0.4-0.3-0.7-0.3c-1.1-0.2-2.1-0.1-3.2,0.1c-0.6,0.1-1.2,0.1-1.7,0.2
		c-0.9,0.1-1.7,0.2-2.6,0.4c-2,0.5-4,0.9-6,1.5c-1.8,0.5-3.5,1.1-5.3,1.6c-1.2,0.4-2.5,0.7-3.5,1.4c-1.1,0.7-2,1.6-2.5,2.7
		c-0.7,1.4-1.2,2.9-2.1,4.2c-0.9,1.4-2.1,2.7-3.6,3.7c-0.6,0.4-1.2,0.7-1.8,1c-0.1,0.1-0.2,0.2-0.2,0.3c0.4,1.4-0.5,2.6-1.9,3.1
		c-1.2,0.5-2.5,0.8-3.8,1.2c-0.1,0-0.2,0-0.4,0.1C91.9,54.5,90.1,54.5,88.3,54.5 M64.9,27.5c-0.4,0.4-0.9,0.9-1.3,1.3
		c-0.6,0.7-0.5,1.1,0.5,1.5c0.6,0.3,1.3,0.3,2,0.3c1.1,0,2.2,0,3.2-0.1c0.1,0,0.2,0,0.3-0.1c0.8-0.2,1.6-0.4,2.3-0.7
		c0.9-0.4,2-0.5,2.1-1.5c0-0.1,0-0.2,0.1-0.3c0.2-0.2,0.1-0.3-0.2-0.3c-1.1-0.2-2.1-0.4-3.2-0.6c-1.1-0.1-2.3-0.2-3.5-0.1
		C66.3,27,65.5,27.1,64.9,27.5z"/>
	<path class="st0" d="M195.4,32.2c-0.8,0.1-1.3,0.9-1,1.5c0.2,0.3,0.3,0.6,0.3,0.9c-0.1,0.4-0.5,0.6-1,0.7c-0.5,0.1-0.9,0.1-1.4,0.2
		c-0.1,0-0.3-0.1-0.4-0.2c-0.3-0.5-0.5-1-0.7-1.6s0.3-1.1,0.8-1.4c0.7-0.4,1.5-0.7,2.3-1c0.1,0,0.3,0,0.4,0c0.2,0.1,0.4,0.2,0.6,0.4
		C195.4,31.9,195.4,32.1,195.4,32.2z"/>
	<g>
		<path class="st0" d="M0,12.2c0.6-0.8,1.6-1.4,2.4-2C2.5,10.1,2.6,10,2.7,10c0.9-0.7,1.9-1.5,2.8-2.2c0.9-0.6,1.8-1.2,2.8-1.6
			s2-0.9,3.1-1.3c1.5-0.5,2.9-1,4.4-1.6C16.9,3,18,2.6,19,2.3c0.7-0.2,1.5-0.3,2.3-0.4c0.3,0,0.5-0.1,0.8-0.1c0.4,0,0.8,0.1,1.2,0.2
			c0.1,0,0.2,0,0.3,0.1c0-0.1,0-0.2-0.1-0.2C23.2,1.3,23.3,1.1,24,1c0.6-0.1,1.2-0.1,1.9-0.2c0.6-0.1,1.3-0.2,1.9-0.3
			c0.5-0.1,1.1-0.1,1.6-0.1c1.9,0,3.9,0,5.8-0.1c0.6,0,1.1-0.1,1.7-0.2c0.1,0,0.3,0,0.4-0.1c0.6,0,1.3,0,1.9,0
			c0.5,0.2,0.9,0.4,1.6,0.4c1-0.1,2,0,3,0c0.2,0,0.4,0.1,0.5,0.1c0.2,0,0.4,0.1,0.6,0.1c-0.2,0.1-0.4,0.1-0.6,0.2
			C44,0.9,43.7,1,43.5,1.2c0,0,0,0.1,0,0.2c0.2,0.1,0.4,0.3,0.6,0.3c0.1,0,0.2,0,0.3,0c0.6-0.2,1.2-0.4,1.8-0.4
			c0.9,0,1.7,0.2,2.3,0.7c1.8,1,3.3,2.4,4.2,4c0.4,0.7,0.7,1.4,0.8,2.2c0.1,0.6,0.1,1.2,0.2,1.8c0,1-0.3,2-0.8,3l0,0
			c-0.1,0.7-0.6,0.8-1.4,0.8c-0.6,0-0.9,0.1-0.7,0.8c0.1,0.6,0,1.1-0.4,1.6c-0.5,0.6-0.7,1.3-1.1,1.9c-0.3,0.6-0.7,1.2-1.2,1.6
			c-0.3,0.3-0.9,0.5-1.4,0.7c-0.2,0.1-0.3,0.1-0.5,0.2c0-0.2,0-0.3,0-0.5c0.2-0.6-0.1-1.2-0.3-1.8c-0.2-0.7,0-1.3,0.4-1.8
			c1.1-1.3,2.2-2.7,3.2-4.1c0.7-0.9,1.1-1.9,1.3-2.9c0.2-1.5-0.2-3-1.1-4.3c-0.9-1.3-2.1-2.2-3.8-2.8c-0.4-0.1-0.9-0.1-1.4-0.2
			c-0.3,0-0.7,0.1-0.8-0.3h-0.1c-0.7,0-1.4-0.1-2.1-0.1c-0.7,0-1.5-0.1-2.2-0.1c-0.4,0-0.5-0.3-0.3-0.6L39.1,1
			c0-0.1,0.1-0.3,0.1-0.3c-0.2-0.2-0.4-0.1-0.6,0c-1,0.9-2.3,1.3-3.8,1.2c-1-0.1-1.9-0.3-2.9-0.4c-0.6-0.1-0.7-0.1-1.1,0.4
			c-0.3,0.2-0.7,0.4-1.2,0.5C29,2.5,28.1,2.3,27.3,2c-0.6-0.2-1-0.1-1.3,0.3c-0.5,0.6-1.2,0.9-2.1,0.9c-0.8,0-1.5,0.2-2.3,0.3
			c-0.5,0.1-1,0.1-1.5,0.1C19,3.7,17.9,3.7,16.9,4c-0.8,0.2-1.5,0.6-2,1.1c-0.4,0.4-0.9,0.3-1.4,0.3s-1-0.2-1.5-0.2
			c-0.1,0-0.3,0-0.1,0.2C12,5.5,12,5.8,12.1,6c0.1,0.3-0.1,0.6-0.5,0.6C11,6.7,10.4,6.8,9.8,6.8c-0.3,0-0.7,0-1,0.1L8.7,7
			C9.1,7.3,9,7.6,8.9,7.9C8.8,8.2,8.6,8.5,8.2,8.7C7.5,9,6.8,9.3,6.1,9.6c-1.2,0.5-2.4,1.1-3.1,2.1c-0.5,0.6-0.9,1.3-1.3,1.9
			c-0.2,0.3-0.3,0.6-0.4,0.9l-0.1,0.1C0.8,14.3,0.4,14,0,13.7C0,13.1,0,12.7,0,12.2 M52.4,8.9c0,0.1-0.1,0.1-0.1,0.2c0,0,0,0,0,0.1
			h0.1c0.1-0.1,0.3-0.2,0.4-0.3c0,0,0-0.1-0.1-0.1C52.6,8.8,52.5,8.8,52.4,8.9 M47.9,17.9c0-0.1-0.1-0.1-0.1-0.2
			C47.8,17.8,47.8,17.9,47.9,17.9v0.2C47.8,18.1,47.9,18,47.9,17.9z"/>
		<path class="st0" d="M33.2,25.5c1.8,0.1,3.2-0.5,4.6-1.3c1.4-0.8,2.7-1.7,4-2.6c0.8-0.5,1.5-1,2.1-1.7c0.3-0.3,0.4-0.3,0.8,0
			c0.2,0.2,0.4,0.3,0.7,0.4c0.7,0.4,0.6,0.7,0.2,1.2c-0.1,0.1-0.1,0.1-0.2,0.2c-0.2,0.3-0.4,0.5-0.8,0.5c-0.4,0-0.7,0.2-1,0.4
			c-0.4,0.3-0.8,0.5-1.2,0.8c-0.6,0.4-1.1,0.8-1.6,1.3l-0.1,0.1c-0.2,0.1-0.5,0.3-0.5,0.4c0,0.2,0.2,0.5,0.3,0.7c0,0,0.2,0,0.3,0
			c0.5-0.1,1-0.2,1.6-0.3c1.2-0.1,2.3,0.3,3.4,0.7c0.8,0.4,1.4,0.8,2.2,1.2c0.4,0.2,0.9,0.4,1.4,0.7c0.8,0.4,1.2,1.1,1.3,1.9
			c0.1,0.6,0,1.2-0.2,1.8c-0.1,0.2,0,0.4,0.1,0.6c0.3,0.7,0.3,0.8-0.6,0.9c-0.6,0.1-1.3,0-1.9-0.3c-0.4-0.2-0.5-0.6-0.3-1
			c0.2-0.5,0.6-1,0.8-1.6c0.1-0.4,0.2-0.8,0.1-1.2c-0.1-0.3-0.4-0.5-0.7-0.7c-1.2-0.6-2.5-1.1-3.9-1.3c-0.6-0.1-1.2-0.1-1.8-0.1
			c-0.5,0-0.7-0.4-1-0.6c0,0,0,0,0-0.1c-0.1-0.1-0.3-0.2-0.4-0.3c-0.1,0.1-0.2,0.2-0.3,0.3c-0.4,0.6-1.1,0.6-1.8,0.7
			c0-0.1-0.1-0.2-0.1-0.3c0-0.4,0.1-0.8,0.1-1.1c0-0.2,0-0.4-0.3-0.4c-0.2,0-0.3,0-0.3,0.2c0,0.4-0.1,0.7-0.1,1.1
			c0,0.3-0.3,0.5-0.5,0.6c-1.5,0.7-3.1,1.5-4.6,2.2c-1,0.5-2,0.9-3,1.3c-0.5,0.2-1.2,0.3-1.7,0.5c-1.1,0.4-2.1,0.8-3.2,1.2
			c-0.9,0.4-1.8,0.7-2.7,1.1c-0.1,0-0.2,0.1-0.2,0.1c-0.4,0-0.7,0.1-1.1,0.1c-0.1,0-0.2-0.1-0.1-0.1c0.4-0.5,0.8-1,1.2-1.6
			c0.3-0.4,0.8-0.6,1.3-0.8c1.8-0.6,3.6-1.3,5.2-2.1c0.9-0.5,1.8-0.9,2.7-1.4c0.2-0.1,0.3-0.4,0.4-0.6l-0.1-0.1
			c-0.4-0.1-0.8-0.3-1.2-0.4c-0.2,0-0.5,0.1-0.8,0.2c-1.8,0.7-3.5,1.5-5.3,2.3c-0.5,0.2-1,0.4-1.5,0.5c-1,0.4-1.8,1-2.3,1.8
			c-0.7,1.1-1.4,2.2-2,3.3c-1,1.9-2.2,3.7-3,5.7c-0.5,1.5-1.2,2.9-1.9,4.3c-0.3,0.7-0.6,1.4-0.9,2.1c0,0.1,0.1,0.2,0.1,0.2
			c0.1,0.1,0.3,0.1,0.4,0.1c0.5,0,1,0.1,1.6,0.1c1.3-0.1,2.7-0.2,4-0.3c2.3-0.2,4.4-0.8,6.6-1.2c2.5-0.6,5-1.4,7.3-2.4
			c1.8-0.8,3.6-1.7,5.2-2.7c0.6-0.4,1.2-0.8,1.9-1.2c1-0.5,1.6-1.3,2.5-1.8c0.9-0.6,1.7-1.2,2.5-1.9c0.4-0.3,0.7-0.5,0.8-1
			s0.7-0.8,1.4-0.8c0.4,0,0.7,0,1.1-0.1c0.2-0.1,0.5-0.2,0.7-0.4c0.1-0.1,0.2-0.1,0.2,0l0,0c0.6,0.6,0.3,1.1-0.1,1.6
			c-0.6,0.8-1.1,1.6-1.6,2.4c0,0.1-0.1,0.1-0.2,0.2c-0.4,0.3-0.7,0.3-0.9-0.2c0-0.1-0.1-0.2-0.1-0.3c0.1-0.3-0.2-0.3-0.4-0.3
			s-0.3,0-0.5,0c-0.1,0-0.4,0-0.4,0.1c0,0.2-0.1,0.4,0.2,0.5c0.1,0,0.3,0.1,0.4,0.1c0.1,0.1,0.4,0.3,0.3,0.4c0,0.1-0.3,0.3-0.5,0.4
			c-0.5,0.2-1.1,0.3-1.6,0.4c-1.1,0.3-2.2,0.5-3.3,0.8c-0.1,0-0.2,0.1-0.2,0.1c0,0.2,0,0.5,0.1,0.7c0.1,0.1,0.4,0.1,0.6,0.1
			c0.4-0.2,0.9-0.2,1.3-0.3c0.1,0,0.1,0,0.2,0c0,0.1-0.1,0.1-0.1,0.2c-0.3,0.7-1.1,0.8-1.8,1.1c-1,0.4-1.9,0.7-2.9,1
			c-0.7,0.2-1.4,0.4-2,0.6c-0.1,0-0.2,0.1-0.2,0.2c0,0.1,0.1,0.2,0.2,0.2c0.2,0.1,0.4,0.2,0.6,0.3c0.1,0.1,0.2,0.2,0.2,0.3
			s-0.2,0.2-0.3,0.2c-0.3,0-0.7,0.1-1,0.1c-0.1,0-0.1,0-0.2,0v0.1c0.1,0,0.1,0.1,0.2,0.1c-0.1,0-0.2,0-0.2,0c-0.6,0-1.3,0.1-1.9,0.1
			c-0.7,0.1-1.4,0.2-2.1,0.4c-0.4,0.1-0.7,0.4-0.9,0.7c-0.6,0.7-1.5,1-2.5,1.2c-1.5,0.3-3,0.7-4.5,1c-1.2,0.2-2.3,0.4-3.5,0.6
			c-0.8,0.2-1.6,0.2-2.5,0.2c-0.7,0-1.4-0.1-2.1-0.1c-0.4,0-0.8,0-1.1,0.1c-0.4,0-0.7,0.3-0.8,0.6c-0.4,0.9-0.8,1.7-1.1,2.6
			c-0.4,1.1-0.7,2.2-1.1,3.4c0,0.1,0,0.2-0.1,0.3s-0.3,0.2-0.4,0.2c-0.1,0-0.3-0.2-0.3-0.3c0-0.5,0-1,0.1-1.5c0-0.4,0.1-0.8,0.1-1.1
			c0-0.6,0.1-1.1,0.1-1.7c0-0.7,0-1.3,0.1-2c0.1-0.6-0.3-1.1-0.6-1.7c-0.4-0.7-0.7-1.5-1-2.2c0,0,0-0.1,0.1-0.2
			C9,45.1,9.1,45.1,9.2,45c0.2-0.1,0.3-0.3,0.5-0.4C9,44.8,9.1,45,9.1,45.2c0.1,0.5,0.7,0.8,1,1.2h0.1c0.6-0.4,0.7-1,0.8-1.6
			c0.1-0.9,0.3-1.8,0.6-2.7c0.6-1.9,1.5-3.7,2.4-5.6c0.2-0.5,0-0.8-0.2-1.1c0,0-0.1-0.1-0.1,0c-0.4,0.3-0.8,0-1.2-0.1
			c-0.5-0.1-1-0.3-1.5-0.5c0,0-0.1-0.1,0-0.1c0.7-0.4,1.4-0.8,2.2-1.2c0.7-0.3,1.5-0.4,2.2-0.6c0.5-0.1,0.9-0.3,1.1-0.7
			c0-0.1,0-0.2,0-0.2c0-0.1-0.1-0.1-0.1-0.2c-0.4-0.4-0.7-0.5-1.3-0.2c-1.4,0.7-2.8,1.4-4.2,2.1c-0.2,0.1-0.4,0.3-0.6,0.5
			c-0.3,0.3-0.7,0.3-1,0.2c-0.4-0.1-0.7-0.4-1.1-0.6c-0.1-0.1-0.1-0.3-0.1-0.4c0.2-0.7,0.9-1,1.5-1.4c1.2-0.6,2.4-1.3,3.6-1.9
			c0.7-0.4,1.5-0.6,2.3-0.9c0.9-0.4,1.7-0.9,2.2-1.6c0.7-1,1-2,1.4-3c0.4-1.1,0.7-2.2,1.1-3.2c0.3-0.9,0.7-1.9,1.1-2.8
			c0.4-1,0.9-1.9,1.4-2.9c0.2-0.5,0.2-1,0.4-1.5c0.1-0.2,0.4-0.4,0.6-0.5c0.1,0,0.3,0.1,0.5,0.2c0.5,0.3,0.9,0.7,1.3,1.1
			c0.1,0.1,0.2,0.3,0.2,0.4c-0.1,0.6-0.2,1.2-0.3,1.8c-0.1,0.5-0.2,1-0.3,1.6c-0.1,0.6-0.3,1.2-0.4,1.8c-0.2,0.9-0.5,1.8-0.7,2.6
			c-0.2,0.8-0.6,1.3-1.6,1.6c-1,0.3-1,0.9-0.4,1.7c0.4,0.6,1.5,0.8,2.3,0.6c1.2-0.3,2.3-0.6,3.5-0.9c1.2-0.2,2.5-0.4,3.7-0.5
			C32,25.6,32.6,25.5,33.2,25.5 M35,26.7v-0.1c-0.4-0.2-0.7,0-0.9,0.1c-1,0.4-1.7,1-2.4,1.6c-0.1,0.1-0.2,0.2-0.2,0.3
			c0.2,0,0.3,0.1,0.5,0.1c0.1,0,0.2,0,0.3-0.1c0.2-0.1,0.4-0.2,0.6-0.3c0.1-0.1,0.4,0,0.4-0.2c0-0.1,0.3-0.1,0.4-0.2
			C34.1,27.5,34.6,27.2,35,26.7 M46.2,36.4c0.2-0.2,0.4-0.4,0.6-0.6c0,0,0-0.1,0.1-0.2c-0.1,0-0.1,0-0.2,0c-0.5,0-0.8,0.3-0.8,0.8
			c0,0.1,0,0.2,0,0.3C46,36.6,46.1,36.5,46.2,36.4 M18.5,30.2c0.2,0,0.4,0,0.6-0.1c0.2,0,0.4-0.1,0.7-0.1l0.1-0.1l-0.1-0.1
			c-0.5-0.1-0.9,0-1.4,0.1c-0.2,0.1-0.3,0.2-0.5,0.3C18,30.2,18.2,30.2,18.5,30.2 M16.6,34.6c0.1,0,0.4-0.1,0.3-0.1
			c0-0.2-0.6-0.4-0.8-0.3c-0.2,0.1-0.3,0.2-0.4,0.3v0.1C16,34.6,16.2,34.6,16.6,34.6 M22.4,21c-0.1-0.1,0.4-0.3-0.1-0.3
			c-0.3,0-0.3,0.1-0.3,0.2s0,0.3-0.1,0.4C22.1,21.2,22.2,21.1,22.4,21 M44.1,21.2c0-0.2-0.1-0.2-0.2-0.2c-0.1,0-0.1,0-0.2,0
			c0.1,0.1,0.2,0.1,0.2,0.2C43.9,21.2,44,21.2,44.1,21.2z"/>
	</g>
	<path class="st0" d="M157.6,30.2c-0.9,0.2-1.8,0.5-2.7,0.6c-1,0.2-2.1,0.2-3.2,0.2c-0.6,0-0.9-0.3-1.2-0.6
		c-0.2-0.3-0.5-0.5-0.7-0.7l-0.1-0.1c0.1,0,0.1,0,0.2,0c0.6,0.1,1.1,0.3,1.8,0.3c0.9-0.1,1.7-0.2,2.6-0.4c0.9-0.1,1.8-0.3,2.6-0.5
		c0.7-0.2,1.4-0.5,2.1-0.8c0.6-0.2,1.1-0.3,1.7,0c0.2,0.1,0.5,0.1,0.7,0.2c-0.2,0.1-0.3,0.3-0.5,0.4c-0.6,0.5-1.4,0.8-2.2,1.1
		C158.4,29.9,158,30.1,157.6,30.2z"/>
	<path class="st0" d="M174.3,22.7c-0.6,0.7-1.4,1-2.4,1c-0.5,0-1-0.2-1.5-0.3c0,0-0.1,0-0.1-0.1c0,0,0.1,0,0.1-0.1
		c0.1,0,0.2-0.1,0.3-0.1c0.7-0.1,1.2-0.4,1.7-0.8s1-0.4,1.6-0.2h0.1c0.2,0,0.4,0.1,0.6,0.1C174.6,22.4,174.5,22.5,174.3,22.7z"/>
	<path class="st0" d="M169.2,25c-0.2,0.1-0.3,0.2-0.5,0.4c-0.1,0.1-0.1,0.2-0.1,0.3c-0.1-0.1-0.1-0.1-0.2-0.2
		c-0.4-0.6-0.4-0.8,0.3-1.4c0.3-0.2,0.5-0.4,0.8-0.6c0.2-0.2,0.3-0.1,0.4,0c0.1,0.1,0.2,0.2,0.3,0.4c0.2,0.4,0.1,0.7-0.5,1
		C169.6,24.8,169.4,24.9,169.2,25z"/>
	<path class="st0" d="M166.6,25.3c-0.3,0-0.5,0-0.8,0c0.1-0.2,0.2-0.4,0.3-0.6c0.3-0.4,0.8-0.4,1.3-0.3c0.1,0,0.5-0.1,0.5,0.2
		c0,0.3-0.3,0.4-0.5,0.5C167.2,25.2,166.9,25.3,166.6,25.3z"/>
</g>
</svg>
